<svg xmlns="http://www.w3.org/2000/svg"
  xmlns:xlink="http://www.w3.org/1999/xlink" version="1.1" x="0px" y="0px" viewBox="0 0 200 200" enable-background="new 0 0 200 200" xml:space="preserve" style="fill: rgb(0, 0, 0);" original_string_length="2143">
  <g id="__id110_s2xcli5yac">
    <circle cx="100" cy="100" r="100" style="fill: rgb(156, 39, 176);"/>
  </g>
  <g id="__id111_s2xcli5yac">
    <g>
      <path d="M168.5,110.8c-2,0-3.5-1.7-3.5-3.7V93.9c0-2,1.5-3.7,3.5-3.7s3.5,1.7,3.5,3.7v13.3    C172,109.2,170.5,110.8,168.5,110.8z" style="fill: rgb(255, 255, 255);"/>
    </g>
    <g>
      <path d="M40.5,110.8c-2,0-3.5-1.7-3.5-3.7V93.9c0-2,1.5-3.7,3.5-3.7s3.5,1.7,3.5,3.7v13.3    C44,109.2,42.5,110.8,40.5,110.8z" style="fill: rgb(255, 255, 255);"/>
    </g>
    <g>
      <path d="M68.5,152.9c-2.1,0-3.5-2-3.5-4.4v-96c0-2.4,1.4-4.4,3.5-4.4s3.5,2,3.5,4.4v96.1    C72,151,70.5,152.9,68.5,152.9z" style="fill: rgb(255, 255, 255);"/>
    </g>
    <g>
      <path d="M53.5,129.4c-2.1,0-3.5-1.7-3.5-3.7V75.4c0-2.1,1.4-3.7,3.5-3.7s3.5,1.7,3.5,3.7v50.3    C57,127.7,55.5,129.4,53.5,129.4z" style="fill: rgb(255, 255, 255);"/>
    </g>
    <g>
      <path d="M83,129.4c-2.1,0-4-1.7-4-3.7V75.4c0-2.1,1.9-3.7,4-3.7s4,1.7,4,3.7v50.3C87,127.7,85,129.4,83,129.4z" style="fill: rgb(255, 255, 255);"/>
    </g>
    <g>
      <path d="M111,129.4c-2.1,0-4-1.7-4-3.7V75.4c0-2.1,1.9-3.7,4-3.7s4,1.7,4,3.7v50.3C115,127.7,113,129.4,111,129.4z    " style="fill: rgb(255, 255, 255);"/>
    </g>
    <g>
      <path d="M140.5,129.4c-2.1,0-3.5-1.7-3.5-3.7V75.4c0-2.1,1.4-3.7,3.5-3.7s3.5,1.7,3.5,3.7v50.3    C144,127.7,142.5,129.4,140.5,129.4z" style="fill: rgb(255, 255, 255);"/>
    </g>
    <g>
      <path d="M126,116.3c-2.1,0-4-1.7-4-3.7V88.4c0-2.1,1.9-3.7,4-3.7c2.1,0,4,1.7,4,3.7v24.2    C130,114.7,128,116.3,126,116.3z" style="fill: rgb(255, 255, 255);"/>
    </g>
    <g>
      <path d="M155.5,116.2c-2.1,0-3.5-1.7-3.5-3.7V88.2c0-2.1,1.4-3.7,3.5-3.7s3.5,1.7,3.5,3.7v24.2    C159,114.5,157.5,116.2,155.5,116.2z" style="fill: rgb(255, 255, 255);"/>
    </g>
    <g>
      <path d="M97.5,116.3c-2.1,0-3.5-1.7-3.5-3.7V88.4c0-2.1,1.4-3.7,3.5-3.7s3.5,1.7,3.5,3.7v24.2    C101,114.7,99.5,116.3,97.5,116.3z" style="fill: rgb(255, 255, 255);"/>
    </g>
  </g>
</svg>
